<svg xmlns="http://www.w3.org/2000/svg" viewBox="0 0 480 249.54"><defs><style>.cls-1{fill:none;stroke-width:8px;}.cls-1,.cls-3{stroke:#d6d6d6;stroke-linecap:round;stroke-linejoin:round;}.cls-2{fill:#d6d6d6;}.cls-3{fill:#999;stroke-width:3px;}</style></defs><title>nav-logo-lg</title><g id="Layer_2" data-name="Layer 2"><g id="Layer_3" data-name="Layer 3"><path class="cls-1" d="M243,67.71c0,17.6-14.55,31.86-32.5,31.86S178,85.31,178,67.71a31.85,31.85,0,0,1,19.17-29.06"/><path class="cls-1" d="M243,67.71c0-17.59,14.55-31.85,32.5-31.85S308,50.12,308,67.71s-14.55,31.86-32.5,31.86a32.69,32.69,0,0,1-25.93-12.64"/><path class="cls-1" d="M221.92,60.1A31.51,31.51,0,0,1,210.5,35.86C210.5,18.26,225.05,4,243,4a32.53,32.53,0,0,1,29.87,19.28"/><path class="cls-2" d="M32.13,138.48a8.12,8.12,0,0,0-4.81,1.23,4.21,4.21,0,0,0-1.72,3.68,4.83,4.83,0,0,0,2.49,4,31.09,31.09,0,0,0,6.62,3.27,27.26,27.26,0,0,1,5.75,2.81,12.55,12.55,0,0,1,4,4.36,14.13,14.13,0,0,1,1.58,7,12.88,12.88,0,0,1-1.9,6.82,13.35,13.35,0,0,1-5.59,5,19.59,19.59,0,0,1-8.79,1.84,29.37,29.37,0,0,1-8.47-1.26,26.22,26.22,0,0,1-7.81-3.85l4.13-7.3a22.23,22.23,0,0,0,5.62,3,16.64,16.64,0,0,0,5.69,1.17A10.23,10.23,0,0,0,34.07,169a4.38,4.38,0,0,0,2.2-4.11c0-2.45-2.31-4.59-6.92-6.39a60.92,60.92,0,0,1-6.78-3.11,14,14,0,0,1-4.69-4.26,11.79,11.79,0,0,1-2-7,12.87,12.87,0,0,1,4-9.89q4-3.74,10.76-4.07a28,28,0,0,1,8.85,1.2,30.5,30.5,0,0,1,6.91,3.39l-3.55,7.17Q36.72,138.48,32.13,138.48Z"/><path class="cls-2" d="M64.57,130.4V178H55.2V130.4Z"/><path class="cls-2" d="M86.21,130.4v38.51h22.36V178H76.84V130.4Z"/><path class="cls-2" d="M147.92,130.4l-21.71,49.76L104.5,130.4h11.24l10.86,26.82,10.2-26.82Z"/><path class="cls-2" d="M188.56,130.4v9H165.49v10.14h20.42v9H165.49v10.27h24V178H156.12V130.4Z"/><path class="cls-2" d="M224.81,178l-10-15.12h-6.26V178h-9.37V130.4h14.41q8.85,0,13.73,4.3c3.25,2.87,4.88,6.77,4.88,11.73a19,19,0,0,1-1.84,8.24,13.74,13.74,0,0,1-5.66,6l11,17.25Zm-16.28-24.17h6.65c2.54,0,4.4-.74,5.56-2.23a7.65,7.65,0,0,0,1.74-4.81,9.12,9.12,0,0,0-1.48-4.94q-1.49-2.35-5.75-2.36h-6.72Z"/><path class="cls-2" d="M271.79,177a24.24,24.24,0,0,1-8.6,1.49,25.06,25.06,0,0,1-12.92-3.23,21.92,21.92,0,0,1-8.4-8.69,25.1,25.1,0,0,1-2.91-12,27.39,27.39,0,0,1,2.91-12.79A21.46,21.46,0,0,1,250,133a23.06,23.06,0,0,1,12.08-3.13,26.39,26.39,0,0,1,8,1.16,27.64,27.64,0,0,1,6.46,2.91l-3.69,8.85a17.11,17.11,0,0,0-10.46-3.88,12.43,12.43,0,0,0-6.79,2,14.43,14.43,0,0,0-5,5.46,15.75,15.75,0,0,0-1.87,7.65,17.71,17.71,0,0,0,1.74,8,12.91,12.91,0,0,0,5,5.39,14.41,14.41,0,0,0,7.56,1.94,16.64,16.64,0,0,0,6.27-1.13,13.82,13.82,0,0,0,4.39-2.68l3.88,8.4A21.25,21.25,0,0,1,271.79,177Z"/><path class="cls-2" d="M296.27,130.4v38.51h22.36V178H286.9V130.4Z"/><path class="cls-2" d="M327.39,142.16a24.58,24.58,0,0,1,8.85-8.95,23.76,23.76,0,0,1,24.23,0,25.16,25.16,0,0,1,8.92,8.95,23.76,23.76,0,0,1,0,24.23,24.72,24.72,0,0,1-8.92,8.82,24.13,24.13,0,0,1-24.26,0,24.22,24.22,0,0,1-8.82-8.82,24.08,24.08,0,0,1,0-24.23Zm8.4,19.71a14.82,14.82,0,0,0,5.36,5.53,14.41,14.41,0,0,0,7.53,2,13.68,13.68,0,0,0,7.3-2,14.4,14.4,0,0,0,5.17-5.5,16.54,16.54,0,0,0-.07-15.41,14.69,14.69,0,0,0-5.26-5.52,14.44,14.44,0,0,0-14.8,0,14.79,14.79,0,0,0-5.27,5.52,15.73,15.73,0,0,0-1.93,7.76A15.19,15.19,0,0,0,335.79,161.87Z"/><path class="cls-2" d="M391.84,164.71a10.36,10.36,0,0,0,3.62,3.36,9.52,9.52,0,0,0,4.84,1.3,10.25,10.25,0,0,0,5.11-1.3,10,10,0,0,0,3.65-3.36,7.9,7.9,0,0,0,1.32-4.33v-30h9.24v30.18a17,17,0,0,1-2.58,9.21,17.8,17.8,0,0,1-7,6.39,21.65,21.65,0,0,1-19.42,0,17.61,17.61,0,0,1-6.94-6.39,17,17,0,0,1-2.56-9.21V130.4h9.37v30A7.79,7.79,0,0,0,391.84,164.71Z"/><path class="cls-2" d="M430.93,130.4h14.22q9.11,0,15,3.52A21.37,21.37,0,0,1,468.7,143a27.36,27.36,0,0,1,2.68,12,22.52,22.52,0,0,1-3.23,12.08,21.66,21.66,0,0,1-8.69,8.05,25.86,25.86,0,0,1-12,2.81H430.93Zm14.93,38.51q7.29,0,11.56-3.74t4.27-10.8q0-5.69-2.36-9a12.65,12.65,0,0,0-5.49-4.65,15.59,15.59,0,0,0-5.91-1.3H440.3v29.53Z"/><path class="cls-2" d="M153.27,247.6a16.53,16.53,0,0,1-5.05.74,17.6,17.6,0,0,1-9.07-2.3A16.37,16.37,0,0,1,133,239.8a17.55,17.55,0,0,1-2.18-8.64,18,18,0,0,1,2.26-9A16.81,16.81,0,0,1,148,213.5a17.63,17.63,0,0,1,9.32,2.59l-1,2.16a15.47,15.47,0,0,0-8.26-2.5,14.14,14.14,0,0,0-7.39,2,15,15,0,0,0-5.4,5.57,15.37,15.37,0,0,0-2,7.7,15.76,15.76,0,0,0,1.82,7.56,13.78,13.78,0,0,0,5.18,5.45,14.79,14.79,0,0,0,7.78,2,15.3,15.3,0,0,0,8.3-2.45l1.11,2.06A19.17,19.17,0,0,1,153.27,247.6Z"/><path class="cls-2" d="M185.28,248l-8.93-14.5a13.67,13.67,0,0,1-2.54.2h-5.28V248h-2.35V213.88H174a12.88,12.88,0,0,1,5.16,1.06,9.35,9.35,0,0,1,4,3.21,8.88,8.88,0,0,1,1.57,5.38,11.27,11.27,0,0,1-1.44,5.64,8.39,8.39,0,0,1-4.47,3.67L188,248Zm-5-18.86a8.09,8.09,0,0,0,2-5.48,7.39,7.39,0,0,0-1-3.74,7.13,7.13,0,0,0-2.81-2.74,8.58,8.58,0,0,0-4.22-1h-5.76V231.4h5.14Q178.32,231.4,180.31,229.1Z"/><path class="cls-2" d="M217.59,213.88v2.26H198.91v13.53h16.8v2.26h-16.8V245.7h19.35V248h-21.7V213.88Z"/><path class="cls-2" d="M246.14,236.68h-15L226.61,248h-2.35l14.4-35.57h.19L253.25,248h-2.64Zm-.86-2.21-6.57-16.75L232,234.47Z"/><path class="cls-2" d="M278.16,213.88v2.26h-10V248h-2.35V216.14h-9.94v-2.26Z"/><path class="cls-2" d="M288.62,213.88V248h-2.35V213.88Z"/><path class="cls-2" d="M325.39,213.88,310.9,249.54l-14.5-35.66h2.74L311,244l11.67-30.14Z"/><path class="cls-2" d="M354.19,213.88v2.26H335.52v13.53h16.8v2.26h-16.8V245.7h19.34V248H333.17V213.88Z"/><line class="cls-3" x1="478.5" y1="194.86" x2="1.5" y2="194.86"/></g></g></svg>