<svg xmlns="http://www.w3.org/2000/svg" viewBox="0 0 315.98 236"><defs><style>.cls-1{fill:none;stroke:#d6d6d6;stroke-linecap:round;stroke-linejoin:round;stroke-width:14px;}</style></defs><title>nav-logo-sm</title><g id="Layer_2" data-name="Layer 2"><g id="Layer_1-2" data-name="Layer 1"><path class="cls-1" d="M158,155c0,40.87-33.8,74-75.49,74S7,195.87,7,155c0-30,18.28-55.92,44.53-67.51"/><path class="cls-1" d="M158,155c0-40.87,33.8-74,75.5-74S309,114.13,309,155s-33.8,74-75.49,74a75.92,75.92,0,0,1-60.23-29.37"/><path class="cls-1" d="M109,137.32A73.25,73.25,0,0,1,82.5,81C82.5,40.13,116.3,7,158,7a75.58,75.58,0,0,1,69.39,44.79"/></g></g></svg>