<svg xmlns="http://www.w3.org/2000/svg" viewBox="0 0 300 188"><defs><style>.cls-1{fill:#fff;}.cls-2{fill:#d6d6d6;}.cls-3,.cls-4{fill:none;stroke-linecap:round;stroke-linejoin:round;}.cls-3{stroke:#d6d6d6;stroke-width:3px;}.cls-4{stroke:#72a6cc;stroke-width:2px;}</style></defs><title>photo</title><g id="Layer_2" data-name="Layer 2"><g id="Layer_1-2" data-name="Layer 1"><rect class="cls-1" x="1.5" y="9.5" width="297" height="177" rx="14.38" ry="14.38"/><path class="cls-2" d="M284.12,11A12.9,12.9,0,0,1,297,23.88V172.12A12.9,12.9,0,0,1,284.12,185H15.88A12.9,12.9,0,0,1,3,172.12V23.88A12.9,12.9,0,0,1,15.88,11H284.12m0-3H15.88A15.88,15.88,0,0,0,0,23.88V172.12A15.88,15.88,0,0,0,15.88,188H284.12A15.88,15.88,0,0,0,300,172.12V23.88A15.88,15.88,0,0,0,284.12,8Z"/><line class="cls-3" x1="282.5" y1="1.5" x2="258.5" y2="1.5"/><circle class="cls-3" cx="150.5" cy="98.5" r="53"/><path class="cls-4" d="M177.8,131.72a43.54,43.54,0,0,1-7.92,5.18"/><path class="cls-4" d="M193.5,98.5A42.72,42.72,0,0,1,187,121.17"/></g></g></svg>