<svg xmlns="http://www.w3.org/2000/svg" viewBox="0 0 314 220"><defs><style>.cls-1{fill:#fff;}.cls-2{fill:#d6d6d6;}.cls-3{fill:none;stroke:#72a6cc;stroke-linecap:round;stroke-linejoin:round;stroke-width:3px;}</style></defs><title>video_1</title><g id="Layer_2" data-name="Layer 2"><g id="Layer_1-2" data-name="Layer 1"><rect class="cls-1" x="15.5" y="72.5" width="297" height="146" rx="14.38" ry="14.38"/><path class="cls-2" d="M298.12,74A12.9,12.9,0,0,1,311,86.88V204.12A12.9,12.9,0,0,1,298.12,217H29.88A12.9,12.9,0,0,1,17,204.12V86.88A12.9,12.9,0,0,1,29.88,74H298.12m0-3H29.88A15.88,15.88,0,0,0,14,86.88V204.12A15.88,15.88,0,0,0,29.88,220H298.12A15.88,15.88,0,0,0,314,204.12V86.88A15.88,15.88,0,0,0,298.12,71Z"/><path class="cls-1" d="M29.88,30.26a14.38,14.38,0,1,1,0-28.76H298.12a14.38,14.38,0,0,1,0,28.76Z"/><path class="cls-2" d="M298.12,3a12.88,12.88,0,0,1,0,25.76H29.88A12.88,12.88,0,1,1,29.88,3H298.12m0-3H29.88a15.88,15.88,0,1,0,0,31.76H298.12a15.88,15.88,0,0,0,0-31.76Z"/><path class="cls-1" d="M29.88,65.26a14.38,14.38,0,0,1,0-28.76H298.12a14.38,14.38,0,0,1,0,28.76Z"/><path class="cls-2" d="M298.12,38a12.88,12.88,0,0,1,0,25.76H29.88a12.88,12.88,0,0,1,0-25.76H298.12m0-3H29.88a15.88,15.88,0,0,0,0,31.76H298.12a15.88,15.88,0,0,0,0-31.76Z"/><circle class="cls-1" cx="14" cy="32" r="12.5"/><path class="cls-2" d="M14,21A11,11,0,1,1,3,32,11,11,0,0,1,14,21m0-3A14,14,0,1,0,28,32,14,14,0,0,0,14,18Z"/><line class="cls-3" x1="285.5" y1="133.5" x2="43.5" y2="133.5"/><line class="cls-3" x1="285.5" y1="153.5" x2="43.5" y2="153.5"/><line class="cls-3" x1="285.5" y1="172.5" x2="43.5" y2="172.5"/><line class="cls-3" x1="285.5" y1="192.5" x2="43.5" y2="192.5"/><line class="cls-3" x1="133.5" y1="133.5" x2="133.5" y2="96.5"/><line class="cls-3" x1="193.5" y1="133.5" x2="193.5" y2="96.5"/><line class="cls-3" x1="238.5" y1="153.5" x2="238.5" y2="172.5"/><polygon class="cls-2" points="52.5 37 61.5 51 52.5 65 43.5 65 52.5 51 43.5 37 52.5 37"/><polygon class="cls-2" points="97.3 37 106.3 51 97.3 65 88.3 65 97.3 51 88.3 37 97.3 37"/><polygon class="cls-2" points="142.1 37 151.1 51 142.1 65 133.1 65 142.1 51 133.1 37 142.1 37"/><polygon class="cls-2" points="186.9 37 195.9 51 186.9 65 177.9 65 186.9 51 177.9 37 186.9 37"/><polygon class="cls-2" points="231.7 37 240.7 51 231.7 65 222.7 65 231.7 51 222.7 37 231.7 37"/><polygon class="cls-2" points="276.5 37 285.5 51 276.5 65 267.5 65 276.5 51 267.5 37 276.5 37"/><polygon class="cls-2" points="52.5 2 61.5 16 52.5 30 43.5 30 52.5 16 43.5 2 52.5 2"/><polygon class="cls-2" points="97.3 2 106.3 16 97.3 30 88.3 30 97.3 16 88.3 2 97.3 2"/><polygon class="cls-2" points="142.1 2 151.1 16 142.1 30 133.1 30 142.1 16 133.1 2 142.1 2"/><polygon class="cls-2" points="186.9 2 195.9 16 186.9 30 177.9 30 186.9 16 177.9 2 186.9 2"/><polygon class="cls-2" points="231.7 2 240.7 16 231.7 30 222.7 30 231.7 16 222.7 2 231.7 2"/><polygon class="cls-2" points="276.5 2 285.5 16 276.5 30 267.5 30 276.5 16 267.5 2 276.5 2"/></g></g></svg>