<svg xmlns="http://www.w3.org/2000/svg" viewBox="0 0 300 230"><defs><style>.cls-1,.cls-4,.cls-5,.cls-6{fill:none;}.cls-1,.cls-5,.cls-6{stroke:#d6d6d6;}.cls-1{stroke-miterlimit:10;}.cls-1,.cls-5{stroke-width:3px;}.cls-2{fill:#fff;}.cls-3{fill:#d6d6d6;}.cls-4{stroke:#72a6cc;}.cls-4,.cls-5,.cls-6{stroke-linecap:round;stroke-linejoin:round;}.cls-4,.cls-6{stroke-width:2px;}</style></defs><title>web</title><g id="Layer_2" data-name="Layer 2"><g id="Layer_1-2" data-name="Layer 1"><rect class="cls-1" x="134" y="173.5" width="32" height="28.5"/><rect class="cls-2" x="1.5" y="1.5" width="297" height="177" rx="14.38" ry="14.38"/><path class="cls-3" d="M284.12,3A12.9,12.9,0,0,1,297,15.88V164.12A12.9,12.9,0,0,1,284.12,177H15.88A12.9,12.9,0,0,1,3,164.12V15.88A12.9,12.9,0,0,1,15.88,3H284.12m0-3H15.88A15.88,15.88,0,0,0,0,15.88V164.12A15.88,15.88,0,0,0,15.88,180H284.12A15.88,15.88,0,0,0,300,164.12V15.88A15.88,15.88,0,0,0,284.12,0Z"/><line class="cls-4" x1="60.96" y1="14" x2="76.4" y2="14"/><path class="cls-4" d="M14,59.21V29.88A15.88,15.88,0,0,1,29.88,14H41"/><rect class="cls-3" x="8" y="199" width="284" height="6" rx="3" ry="3"/><line class="cls-5" x1="24.5" y1="159.5" x2="276.5" y2="159.5"/><path class="cls-2" d="M267.12,101A13.9,13.9,0,0,1,281,114.88v99.24A13.9,13.9,0,0,1,267.12,228H222.88A13.9,13.9,0,0,1,209,214.12V114.88A13.9,13.9,0,0,1,222.88,101h44.24m0-2H222.88A15.88,15.88,0,0,0,207,114.88v99.24A15.88,15.88,0,0,0,222.88,230h44.24A15.88,15.88,0,0,0,283,214.12V114.88A15.88,15.88,0,0,0,267.12,99Z"/><rect class="cls-2" x="209.95" y="101.5" width="70.1" height="126" rx="14.38" ry="14.38"/><path class="cls-3" d="M265.67,103a12.9,12.9,0,0,1,12.88,12.88v97.24A12.9,12.9,0,0,1,265.67,226H224.33a12.9,12.9,0,0,1-12.88-12.88V115.88A12.9,12.9,0,0,1,224.33,103h41.34m0-3H224.33a15.88,15.88,0,0,0-15.88,15.88v97.24A15.88,15.88,0,0,0,224.33,229h41.34a15.88,15.88,0,0,0,15.88-15.88V115.88A15.88,15.88,0,0,0,265.67,100Z"/><path class="cls-2" d="M274,191a15.88,15.88,0,0,1-15.88,15.88h-5.7"/><path class="cls-4" d="M274,191a15.88,15.88,0,0,1-15.88,15.88h-5.7"/><line class="cls-2" x1="274" y1="179.09" x2="274" y2="184.26"/><line class="cls-4" x1="274" y1="179.09" x2="274" y2="184.26"/><line class="cls-1" x1="211" y1="212" x2="279" y2="212"/><line class="cls-1" x1="211" y1="118.5" x2="279" y2="118.5"/><line class="cls-6" x1="237.5" y1="110.5" x2="252.5" y2="110.5"/><path class="cls-3" d="M245,216a4,4,0,1,1-4,4,4,4,0,0,1,4-4m0-1a5,5,0,1,0,5,5,5,5,0,0,0-5-5Z"/></g></g></svg>